<mxfile host="65bd71144e">
    <diagram id="R40UBbsVWRwJJyZEYB1N" name="Page-1">
        <mxGraphModel dx="1692" dy="825" grid="1" gridSize="10" guides="1" tooltips="1" connect="1" arrows="1" fold="1" page="1" pageScale="1" pageWidth="850" pageHeight="1100" math="0" shadow="0">
            <root>
                <mxCell id="0"/>
                <mxCell id="1" parent="0"/>
                <mxCell id="20" value="" style="whiteSpace=wrap;html=1;fontSize=40;strokeWidth=1;" parent="1" vertex="1">
                    <mxGeometry x="100" y="180" width="620" height="410" as="geometry"/>
                </mxCell>
                <mxCell id="21" value="&lt;font style=&quot;font-size: 40px&quot;&gt;&lt;b&gt;SSH Proxy Tunnel&lt;/b&gt;&lt;/font&gt;" style="text;html=1;resizable=0;autosize=1;align=center;verticalAlign=middle;points=[];fillColor=none;strokeColor=none;rounded=0;" parent="1" vertex="1">
                    <mxGeometry x="239.5" y="200" width="360" height="30" as="geometry"/>
                </mxCell>
                <mxCell id="22" value="&lt;b style=&quot;font-size: 23px&quot;&gt;&lt;font style=&quot;font-size: 23px&quot;&gt;&lt;font style=&quot;font-size: 23px&quot; color=&quot;#00cc00&quot;&gt;ssh -L&lt;/font&gt;&amp;nbsp;&lt;font color=&quot;#ffffff&quot;&gt;8888:&lt;/font&gt;&lt;font color=&quot;#fa6800&quot;&gt;192.168.0.83&lt;/font&gt;&lt;font color=&quot;#fafafa&quot;&gt;:80&lt;/font&gt; &lt;font color=&quot;#fcfcfc&quot;&gt;user@&lt;/font&gt;&lt;font color=&quot;#3399ff&quot;&gt;192.168.0.93&lt;/font&gt;&lt;/font&gt;&lt;/b&gt;" style="whiteSpace=wrap;html=1;fillColor=#bac8d3;strokeColor=#23445d;rounded=1;" parent="1" vertex="1">
                    <mxGeometry x="170" y="530" width="540" height="60" as="geometry"/>
                </mxCell>
                <mxCell id="23" value="&lt;font color=&quot;#000000&quot; style=&quot;font-size: 30px&quot;&gt;Local&lt;/font&gt;" style="text;html=1;resizable=0;autosize=1;align=center;verticalAlign=middle;points=[];fillColor=none;strokeColor=none;rounded=0;fontSize=23;fontColor=#FCFCFC;" parent="1" vertex="1">
                    <mxGeometry x="136" y="235" width="90" height="40" as="geometry"/>
                </mxCell>
                <mxCell id="24" value="&lt;font color=&quot;#000000&quot; style=&quot;font-size: 30px&quot;&gt;Remote&lt;/font&gt;" style="text;html=1;resizable=0;autosize=1;align=center;verticalAlign=middle;points=[];fillColor=none;strokeColor=none;rounded=0;fontSize=23;fontColor=#FCFCFC;" parent="1" vertex="1">
                    <mxGeometry x="566" y="235" width="120" height="40" as="geometry"/>
                </mxCell>
                <mxCell id="28" value="&lt;div&gt;&lt;span&gt;8888&lt;/span&gt;&lt;/div&gt;" style="whiteSpace=wrap;html=1;fontSize=40;fillColor=#6d8764;fontColor=#ffffff;strokeColor=none;align=center;strokeWidth=5;" parent="1" vertex="1">
                    <mxGeometry x="111" y="270" width="150" height="160" as="geometry"/>
                </mxCell>
                <mxCell id="29" value="&lt;div&gt;&lt;span&gt;80&lt;/span&gt;&lt;/div&gt;" style="whiteSpace=wrap;html=1;fontSize=40;fillColor=#fa6800;strokeColor=none;align=center;strokeWidth=5;fontColor=#000000;" parent="1" vertex="1">
                    <mxGeometry x="541" y="270" width="150" height="160" as="geometry"/>
                </mxCell>
                <mxCell id="31" value="&lt;font size=&quot;1&quot;&gt;&lt;b style=&quot;font-size: 27px&quot;&gt;192.168.0.83&lt;/b&gt;&lt;/font&gt;" style="text;html=1;resizable=0;autosize=1;align=center;verticalAlign=middle;points=[];fillColor=none;strokeColor=none;rounded=0;" parent="1" vertex="1">
                    <mxGeometry x="531" y="440" width="170" height="20" as="geometry"/>
                </mxCell>
                <mxCell id="32" value="" style="whiteSpace=wrap;html=1;fontSize=40;fillColor=#3399FF;strokeColor=none;align=center;strokeWidth=5;" parent="1" vertex="1">
                    <mxGeometry x="328.5" y="275" width="150" height="160" as="geometry"/>
                </mxCell>
                <mxCell id="35" value="&lt;font color=&quot;#000000&quot; style=&quot;font-size: 30px&quot;&gt;Proxy&lt;/font&gt;" style="text;html=1;resizable=0;autosize=1;align=center;verticalAlign=middle;points=[];fillColor=none;strokeColor=none;rounded=0;fontSize=23;fontColor=#FCFCFC;" parent="1" vertex="1">
                    <mxGeometry x="354" y="235" width="90" height="40" as="geometry"/>
                </mxCell>
                <mxCell id="38" value="" style="shape=doubleArrow;whiteSpace=wrap;html=1;fillColor=#60A917;strokeColor=none;" parent="1" vertex="1">
                    <mxGeometry x="260" y="325" width="280" height="60" as="geometry"/>
                </mxCell>
                <mxCell id="39" value="&lt;font size=&quot;1&quot;&gt;&lt;b style=&quot;font-size: 27px&quot;&gt;192.168.0.93&lt;/b&gt;&lt;/font&gt;" style="text;html=1;resizable=0;autosize=1;align=center;verticalAlign=middle;points=[];fillColor=none;strokeColor=none;rounded=0;" parent="1" vertex="1">
                    <mxGeometry x="318.5" y="440" width="170" height="20" as="geometry"/>
                </mxCell>
            </root>
        </mxGraphModel>
    </diagram>
</mxfile>